PathFileType	4	(X/Y/Z)	D:\TRACE\spot_10-12-23\spot_arm_body_motion_1_2-platform.trc
DataRate	CameraRate	NumFrames	NumMarkers	Units	OrigDataRate	OrigDataStartFrame	OrigNumFrames
100.00	100.00	      67	5	mm	100.00	2626	      7000
Frame#	Time	Left_Front			Right_Front			Left_Aft			Right_Aft			Post			
		X1	Y1	Z1	X2	Y2	Z2	X3	Y3	Z3	X4	Y4	Z4	X5	Y5	Z5	

2626	26.250	-822.35522	-11.98464	-657.44189	745.26733	-14.30574	-632.42456	-750.87964	26.61212	480.66925	659.11310	28.96716	580.98688	-19.67053	708.52246	-992.28302	
2627	26.260	-821.82629	-11.91870	-657.40070	745.78687	-14.28181	-632.42004	-750.15924	26.59183	480.69043	659.64825	28.92212	580.96216	-19.04838	708.84180	-992.38953	
2628	26.270	-820.94733	-12.05207	-657.31958	746.39203	-14.12523	-632.40356	-749.66205	26.57845	480.68823	660.25421	28.73946	581.02600	-18.33648	709.00122	-992.34436	
2629	26.280	-820.19775	-11.88496	-657.28790	746.93359	-13.94282	-632.40399	-749.35718	26.57315	480.70816	660.74988	28.62588	581.13281	-17.65953	709.11090	-992.24194	
2630	26.290	-819.68610	-11.92423	-657.33093	747.56549	-13.89641	-632.47699	-748.66583	26.49214	480.78149	661.35358	28.49528	581.17242	-17.15525	709.21759	-992.26489	
2631	26.300	-819.21576	-11.76749	-657.24261	748.16528	-13.73219	-632.41565	-747.88324	26.41911	480.87338	661.90472	28.46366	581.20428	-17.11318	709.31177	-992.61804	
2632	26.310	-818.62305	-11.54628	-657.36548	748.82104	-13.63010	-632.32825	-747.19635	26.32878	480.92673	662.72571	28.49005	581.18146	-15.98890	709.61432	-992.19293	
2633	26.320	-817.92737	-11.29630	-657.33331	749.56744	-13.45761	-632.25482	-746.78436	26.24491	480.93259	663.50677	28.37952	581.19000	-15.71689	709.84656	-992.33209	
2634	26.330	-817.04572	-11.29052	-657.18689	750.35150	-13.37623	-632.15320	-745.99084	26.11572	480.97849	664.16888	28.24677	581.30658	-14.62116	709.92548	-991.65472	
2635	26.340	-816.45227	-11.22219	-657.08789	750.96100	-13.23697	-632.09595	-745.13458	25.96854	481.05301	664.73560	28.17978	581.38385	-13.94295	710.16010	-991.32172	
2636	26.350	-815.86047	-11.13638	-657.06018	751.53882	-13.03858	-632.08429	-744.37085	25.96391	480.81122	665.40332	28.08421	581.47766	-13.60246	710.27747	-991.23981	
2637	26.360	-815.19305	-11.02969	-657.13422	752.03436	-13.12531	-632.11481	-743.64850	25.91673	480.81366	666.07135	27.91066	581.52209	-12.86176	710.55902	-991.00427	
2638	26.370	-814.40625	-10.79796	-657.20313	752.82648	-12.93539	-632.14423	-742.80652	25.86787	480.84204	666.89044	27.81402	581.51410	-11.85939	710.83777	-990.67639	
2639	26.380	-813.54816	-10.64500	-657.05786	753.68280	-12.57946	-632.12012	-742.31671	25.87013	480.87851	667.56903	27.70949	581.51831	-11.46406	711.12726	-990.64874	
2640	26.390	-812.93298	-10.57009	-656.83734	754.36920	-12.38944	-632.09692	-741.74786	25.76581	480.93396	668.06372	27.38482	581.48444	-9.55927	711.55859	-989.13861	
2641	26.400	-812.38788	-10.31250	-656.77417	755.16937	-12.19051	-631.89862	-740.82654	25.58412	481.04843	668.81903	27.20792	581.59534	-10.16020	711.58978	-990.33392	
2642	26.410	-811.63910	-10.08514	-656.83783	755.93823	-12.02649	-631.76099	-740.06036	25.39496	481.15393	669.60608	27.15746	581.62616	-9.17376	711.92267	-990.09491	
2643	26.420	-810.65759	-9.86796	-656.85822	756.67932	-11.85338	-631.79559	-739.45428	25.21985	481.20297	670.38824	27.09999	581.65741	-7.38110	712.11481	-989.75769	
2644	26.430	-810.17175	-9.50829	-656.64600	757.35114	-11.72409	-631.81659	-738.51733	25.10695	481.31018	671.33807	26.87653	581.75275	-7.11386	712.41504	-989.59894	
2645	26.440	-809.17657	-9.53459	-656.59100	758.23737	-11.42986	-631.79510	-737.70599	24.98910	481.31308	672.06366	26.70346	581.79358	-7.12696	712.72864	-989.48993	
2646	26.450	-808.35278	-9.28593	-656.63599	758.97894	-11.17023	-631.73529	-737.19751	24.90130	481.26404	672.64502	26.64025	581.84955	-5.76677	713.10596	-988.67975	
2647	26.460	-807.44196	-9.05563	-656.82880	759.64886	-10.91846	-631.72223	-736.23444	24.77727	481.41318	673.55414	26.39931	581.95416	-5.13517	713.54926	-988.50098	
2648	26.470	-806.95905	-8.77375	-656.74731	760.40582	-10.75350	-631.71222	-735.31445	24.57845	481.49014	674.45905	26.17043	581.96057	-4.43392	713.89612	-988.24738	
2649	26.480	-805.87091	-8.49660	-656.54419	761.42780	-10.60800	-631.61121	-734.63770	24.41200	481.55566	675.27405	26.05616	582.03772	-3.63840	714.25922	-987.96729	
2650	26.490	-804.96161	-8.32671	-656.50684	762.27600	-10.33219	-631.49884	-733.61383	24.14924	481.67807	676.19458	26.04917	582.21332	-2.80511	714.58136	-987.58960	
2651	26.500	-804.22571	-7.99854	-656.53809	763.18188	-9.95261	-631.42316	-732.78528	24.01982	481.72406	677.00739	25.65770	582.20221	-2.18379	714.86536	-987.62762	
2652	26.510	-803.56201	-7.52244	-656.43231	763.83337	-9.78748	-631.37476	-732.20477	23.95558	481.72769	677.62238	25.49080	582.25476	-1.08423	715.12781	-986.99475	
2653	26.520	-802.60388	-7.45389	-656.43634	764.78949	-9.81060	-631.35608	-731.23694	23.81035	481.80594	678.36243	25.38252	582.25507	-0.37938	715.46979	-986.70148	
2654	26.530	-801.68726	-7.60180	-656.31433	765.59467	-9.77000	-631.31366	-730.41553	23.76160	481.89597	679.41119	25.14217	582.34534	0.22958	715.79822	-986.65509	
2655	26.540	-801.03723	-7.32930	-656.24127	766.38562	-9.47738	-631.24377	-729.70471	23.54597	481.88901	680.17084	25.00635	582.46252	1.19345	716.06476	-986.44769	
2656	26.550	-800.10864	-7.01892	-656.10535	767.42072	-8.95256	-631.16083	-728.51184	23.30612	482.04990	680.93744	24.82617	582.55377	2.20038	716.49792	-986.11212	
2657	26.560	-799.04486	-6.80479	-656.13184	768.37000	-8.68548	-631.07196	-727.81952	23.09365	482.10382	682.06030	24.47477	582.65125	3.52803	716.94928	-985.49463	
2658	26.570	-798.15698	-6.30431	-655.94061	769.16254	-8.47464	-630.87201	-726.91870	22.86826	482.19067	682.95728	24.42784	582.72791	3.90652	717.41565	-985.43762	
2659	26.580	-797.26801	-6.00996	-655.77692	770.10449	-8.07493	-630.83850	-725.92615	22.85439	482.32819	683.91125	24.18010	582.87866	4.84469	717.98718	-984.68585	
2660	26.590	-796.53534	-5.74320	-655.86292	770.89612	-7.66531	-630.92145	-725.17535	22.54648	482.41257	684.76788	23.86746	582.97821	5.74103	718.51031	-984.34277	
2661	26.600	-795.77393	-5.33143	-655.82629	771.76581	-7.35917	-630.92023	-724.20862	22.13847	482.57101	685.62213	23.48507	583.07416	6.52890	718.97595	-984.14075	
2662	26.610	-794.69379	-4.77044	-655.73083	772.68384	-7.12152	-630.67358	-723.34082	21.88560	482.77582	686.58289	23.30712	583.20929	7.41184	719.41748	-983.47443	
2663	26.620	-793.70337	-4.57906	-655.49243	773.69727	-6.82738	-630.49176	-722.39777	21.77108	482.81949	687.51947	23.11447	583.28540	8.35999	719.90668	-982.72491	
2664	26.630	-792.81299	-4.14223	-655.54395	774.47034	-6.62467	-630.44415	-721.22198	21.65666	482.90060	688.28693	22.79445	583.33289	9.46913	720.60132	-982.28149	
2665	26.640	-792.03259	-3.92277	-655.63068	775.46350	-6.18819	-630.44427	-720.55914	21.37403	482.95905	689.23456	22.61437	583.45538	10.26765	720.95184	-981.71484	
2666	26.650	-791.09796	-3.64773	-655.50482	776.41290	-5.89329	-630.41650	-719.67896	21.16420	483.00232	690.13171	22.20426	583.54761	11.11661	721.25525	-981.18475	
2667	26.660	-790.12524	-3.42997	-655.16040	777.28076	-5.64451	-630.40240	-718.68591	20.92515	483.07358	691.09576	21.99618	583.64343	12.09054	721.73169	-980.65466	
2668	26.670	-789.08130	-3.15189	-655.18304	778.31873	-5.34990	-630.25366	-717.78082	20.75881	483.20407	692.07501	21.96636	583.73297	13.01509	722.34357	-980.19269	
2669	26.680	-788.22491	-2.73931	-655.13788	779.21204	-4.90051	-630.16431	-716.74542	20.58382	483.36646	693.12054	21.69593	583.79974	13.69070	722.73749	-980.16345	
2670	26.690	-787.29767	-2.46646	-655.20880	780.29712	-4.44564	-630.02258	-715.83710	20.34397	483.53201	693.99457	21.47627	583.86719	14.80143	723.35468	-979.58344	
2671	26.700	-786.20605	-2.26451	-655.05420	781.24988	-4.25336	-629.96277	-714.93268	20.03738	483.57379	694.91534	20.98902	583.92096	15.64859	723.76154	-979.30682	
2672	26.710	-785.33276	-1.76574	-654.94165	782.11273	-3.99544	-630.00348	-713.88965	19.67739	483.65643	695.87573	20.71902	584.06543	16.41213	724.24225	-979.37805	
2673	26.720	-784.52704	-1.27673	-654.82556	783.05292	-3.46176	-629.81702	-712.92249	19.39704	483.78366	696.97076	20.49171	584.28082	17.63030	724.82416	-978.96533	
2674	26.730	-783.37384	-0.84372	-654.71552	784.15912	-2.91673	-629.69635	-711.86633	19.15973	483.88135	697.84546	20.15845	584.38934	18.75768	725.45496	-978.48364	
2675	26.740	-782.38861	-0.43984	-654.54395	784.86017	-2.86277	-629.63336	-711.01111	19.04296	483.98657	698.69000	19.75374	584.34595	19.34944	726.08356	-978.32306	
2676	26.750	-781.44788	-0.15527	-654.52533	785.69006	-2.38171	-629.34790	-710.18231	18.78643	483.95190	699.68933	19.34928	584.43335	20.15476	726.65802	-977.80029	
2677	26.760	-780.60339	0.29808	-654.43921	786.91663	-1.83134	-629.36487	-709.19965	18.44851	484.07660	700.56390	19.04390	584.64020	21.03879	727.27252	-977.36420	
2678	26.770	-779.56836	0.64932	-654.43268	787.86639	-1.19420	-629.32245	-708.05634	17.81448	484.43094	701.57794	18.77573	584.75555	22.18140	727.82068	-976.36511	
2679	26.780	-778.57471	1.08461	-654.09283	788.73578	-0.86326	-629.29340	-707.16840	17.70878	484.38977	702.49579	18.49130	584.84943	23.37853	728.36963	-975.13068	
2680	26.790	-777.66266	1.54583	-654.00616	789.81000	-0.59606	-629.13080	-706.27350	17.74314	484.46237	703.62799	18.33142	584.87659	24.40694	728.94049	-974.10107	
2681	26.800	-776.70813	1.79857	-654.05542	790.75977	-0.19726	-629.07092	-705.46118	17.32758	484.68091	704.73584	18.00768	584.98029	25.07793	729.52527	-973.64832	
2682	26.810	-775.65521	2.15135	-654.01038	791.78131	0.21857	-628.91058	-704.33282	16.95798	484.61215	705.43353	17.51835	585.15613	25.63406	730.13422	-973.49170	
2683	26.820	-774.50262	2.39060	-653.93256	792.73700	0.44018	-628.86993	-703.36438	16.57585	484.78348	706.31592	17.22011	585.31055	27.00121	730.76630	-972.27130	
2684	26.830	-773.71722	2.95459	-653.72913	793.57434	0.79441	-628.79602	-702.21155	16.41133	484.86734	707.39606	16.89826	585.40601	27.52061	731.29974	-972.37280	
2685	26.840	-772.88831	3.55248	-653.65784	794.59503	1.45486	-628.66528	-701.55963	16.37649	484.86536	708.48267	16.82541	585.54504	28.47636	732.08496	-971.86737	
2686	26.850	-771.98383	3.97328	-653.56128	795.56250	1.92532	-628.56342	-700.48969	16.13701	485.04413	709.51807	16.40496	585.63379	29.79966	732.78784	-971.10675	
2687	26.860	-770.79675	4.16944	-653.21588	796.52985	2.33699	-628.35791	-699.51172	15.52483	485.21967	710.33966	15.99971	585.75415	30.68164	733.36047	-970.85120	
2688	26.870	-769.76074	4.37655	-653.15533	797.62097	2.64642	-628.19580	-698.56006	15.14886	485.37582	711.40778	15.55937	585.82574	31.09110	733.96106	-970.97327	
2689	26.880	-768.87653	5.09940	-653.17383	798.61804	3.15728	-628.18054	-697.56317	14.99209	485.54858	712.29755	15.25090	585.95691	32.67768	734.80389	-969.94537	
2690	26.890	-767.73694	5.34677	-653.20740	799.64795	3.82620	-628.07965	-696.64447	14.68966	485.60040	713.28485	14.89515	586.05035	33.17013	735.48621	-969.99524	
2691	26.900	-766.79504	6.05058	-652.86041	800.38922	4.31387	-627.99420	-695.48096	14.28720	485.78436	714.21979	14.50064	586.23157	34.19346	736.17395	-969.40320	
2692	26.910	-765.99731	6.72193	-652.83905	801.32367	4.74300	-627.80011	-694.75446	14.05400	485.87833	715.13696	14.02710	586.40503	36.25492	736.88959	-968.25763	
